<?xml version="1.0" encoding="UTF-8"?>
<svg xmlns="http://www.w3.org/2000/svg" id="Layer_1" data-name="Layer 1" viewBox="0 0 128 128" width="512" height="512"><path d="M60,98.012A5.712,5.712,0,1,0,65.715,92.3,5.719,5.719,0,0,0,60,98.012Zm9.424,0A3.712,3.712,0,1,1,65.715,94.3,3.716,3.716,0,0,1,69.427,98.012Z"/><path d="M118.7,82.554a6.693,6.693,0,0,0-2.463-4.534L97.742,63.053a6.766,6.766,0,0,0-4.241-1.5H90.8V55.213h7.913a2.437,2.437,0,0,0,2.435-2.435v-5.81a2.437,2.437,0,0,0-2.435-2.435h-7.87V13.6a12.587,12.587,0,0,0-22.98-7.11l-.885,1.294A13.8,13.8,0,0,0,51.63,12l-1.413,1.716a1,1,0,0,0,.136,1.408l19.8,16.3a1,1,0,0,0,1.408-.136l1.414-1.716A13.838,13.838,0,0,0,74.1,13.6l1.326-1.932a3.419,3.419,0,0,1,6.243,1.93V44.533H67.581a2.437,2.437,0,0,0-2.435,2.435v5.81a2.437,2.437,0,0,0,2.435,2.435h7.913v6.339H49.1L20.436,30.564c-.029-.03-.059-.059-.09-.086A6.741,6.741,0,0,0,11.62,40.756L42.148,73.37a1.11,1.11,0,0,0,.086.082,6.753,6.753,0,0,0,4.339,1.581H60.037v9.49a15.566,15.566,0,0,0-9.872,14.462v14.1H30.137a5.311,5.311,0,0,0-5.3,5.306V126a1,1,0,0,0,1,1H105.6a1,1,0,0,0,1-1v-7.609a5.312,5.312,0,0,0-5.306-5.306H81.266v-14.1a15.566,15.566,0,0,0-9.872-14.462v-9.49H91.115L107.752,88.5l.041.032a6.622,6.622,0,0,0,3.949,1.27,7.551,7.551,0,0,0,5.491-2.3A6.69,6.69,0,0,0,118.7,82.554ZM71.432,28.3l-.778.945L52.4,14.212l.778-.944A11.825,11.825,0,1,1,71.432,28.3ZM78.245,8.176a5.436,5.436,0,0,0-4.47,2.357l-.918,1.338a13.863,13.863,0,0,0-1.767-1.76A14.019,14.019,0,0,0,68.84,8.6l.674-.985A10.587,10.587,0,0,1,88.841,13.6V44.533H83.666V13.6A5.427,5.427,0,0,0,78.245,8.176Zm-11.1,44.6v-5.81a.436.436,0,0,1,.435-.435h31.13a.436.436,0,0,1,.435.435v5.81a.435.435,0,0,1-.435.435H67.581A.435.435,0,0,1,67.146,52.778Zm10.348,2.435H88.8v6.339h-11.3ZM104.6,118.391V125H26.832v-6.609a3.309,3.309,0,0,1,3.305-3.306h71.157A3.31,3.31,0,0,1,104.6,118.391ZM79.266,98.985v14.1h-27.1v-14.1a13.551,13.551,0,0,1,27.1,0ZM69.394,83.893a15,15,0,0,0-7.357,0v-8.86h7.357Zm46.285,2.349c-.818,1.011-4.169,2.5-6.69.686L92.1,73.256a1,1,0,0,0-.629-.223h-44.9a4.759,4.759,0,0,1-3.008-1.075L13.041,39.348a1.11,1.11,0,0,0-.086-.082,4.741,4.741,0,0,1,6.057-7.3L47.933,63.231a1,1,0,0,0,.734.321H93.5a4.763,4.763,0,0,1,2.983,1.055l18.492,14.968a4.741,4.741,0,0,1,.7,6.667Z"/></svg>
