<svg id="Icons" height="512" viewBox="0 0 74 74" width="512" xmlns="http://www.w3.org/2000/svg"><path d="m54.188 7.413a.5.5 0 0 1 -.259-.073 8.661 8.661 0 0 0 -2.717-1.059.5.5 0 0 1 .209-.979 9.71 9.71 0 0 1 3.027 1.183.5.5 0 0 1 -.26.928z"/><path d="m50.353 36.583h-26.707a2.525 2.525 0 0 1 -2.346-1.619c-.991-2.6-1.967-5.161-2.83-7.431-.792-2.081-1.489-3.913-2.016-5.291a17.715 17.715 0 0 1 -1.113-8.3c.842-7.092 5.659-8.765 9.546-8.919 4.941-.193 12.038 3.377 12.339 3.529a.5.5 0 1 1 -.454.891c-.071-.036-7.162-3.6-11.846-3.421-5.092.2-7.984 2.907-8.595 8.039a16.721 16.721 0 0 0 1.056 7.826c.526 1.377 1.223 3.209 2.015 5.29.864 2.27 1.839 4.835 2.83 7.431a1.521 1.521 0 0 0 1.414.975h26.707a1.519 1.519 0 0 0 1.413-.975c1.177-3.068 2.327-6.087 3.29-8.626a.5.5 0 0 1 .935.354c-.965 2.54-2.114 5.561-3.291 8.629a2.524 2.524 0 0 1 -2.347 1.618z"/><path d="m58.257 16.03a.5.5 0 0 1 -.5-.5 28.1 28.1 0 0 0 -.384-3.114.493.493 0 0 1 -.015-.12.5.5 0 0 1 .5-.5.5.5 0 0 1 .5.427 28.341 28.341 0 0 1 .4 3.311.5.5 0 0 1 -.501.496z"/><path d="m46.5 42.148h-19a.5.5 0 0 1 -.5-.5v-5.565a.5.5 0 0 1 1 0v5.065h18v-5.065a.5.5 0 0 1 1 0v5.565a.5.5 0 0 1 -.5.5z"/><path d="m39.872 69.012h-5.745a.5.5 0 0 1 -.426-.238l-2.282-3.7a.5.5 0 0 1 -.074-.263v-23.163a.5.5 0 1 1 1 0v23.025l2.061 3.339h5.187l2.06-3.339v-23.025a.5.5 0 0 1 1 0v23.167a.5.5 0 0 1 -.074.263l-2.281 3.7a.5.5 0 0 1 -.426.234z"/><path d="m30.714 49.9a.5.5 0 0 1 -.1-.99l12.569-2.538a.5.5 0 0 1 .2.98l-12.57 2.538a.552.552 0 0 1 -.099.01z"/><path d="m30.714 54.533a.5.5 0 0 1 -.1-.991l12.571-2.542a.5.5 0 0 1 .2.98l-12.572 2.543a.475.475 0 0 1 -.099.01z"/><path d="m30.714 59.166a.5.5 0 0 1 -.1-.99l12.569-2.539a.5.5 0 0 1 .2.981l-12.57 2.538a.475.475 0 0 1 -.099.01z"/><path d="m30.714 63.8a.5.5 0 0 1 -.1-.99l12.569-2.538a.5.5 0 0 1 .2.98l-12.57 2.538a.552.552 0 0 1 -.099.01z"/></svg>