<svg id="Layer_1" viewBox="0 0 512 512" xmlns="http://www.w3.org/2000/svg" data-name="Layer 1"><path d="m438.3 208.69a5.52 5.52 0 0 0 .23-4.71 5.6 5.6 0 0 0 -3.49-3.2c-.43-.13-42.89-13.7-47.93-51.52-3.88-29.1-22.1-59.84-43.31-73.08-8.82-5.51-17.51-7.63-25.5-6.26-34.18-42.53-70.61-44-95.39-37.52-51.09 13.3-93.65 70.14-99.9 112.82-6.19 42.3-44.42 54.65-46.05 55.15a5.56 5.56 0 0 0 -2.83 8.6c3.34 4.5 79.16 105.88 149.78 119.55.9 16.57-.95 33-10.71 36.17-2.42.78-5.3 1.44-8.37 2.09l-1.44.32-4.58.92c-30.24 6-80.86 16-76.75 109.12a5.54 5.54 0 0 0 5.53 5.3h.26a5.54 5.54 0 0 0 5.29-5.79c-3.68-83.65 37.64-91.79 67.86-97.75l4.67-.93 1.51-.34c3.46-.73 6.72-1.5 9.45-2.38 15.78-5.07 19.16-25.26 18.58-44.38a92.87 92.87 0 0 0 53.36-.05c-.59 19.13 2.78 39.35 18.58 44.43 2.48.8 5.41 1.5 9.4 2.37l6.27 1.28c30.16 6 71.48 14.1 67.79 97.75a5.55 5.55 0 0 0 5.3 5.79 5.44 5.44 0 0 0 5.78-5.3c4.07-93.14-46.53-103.14-76.76-109.14l-7-1.44c-2.7-.59-5.27-1.19-7.45-1.89-10.09-3.24-11.73-20.71-10.6-37.83 90.51-29.92 136.49-114.54 138.42-118.15zm-350.83-.6c13.39-6.19 41-23.37 46.52-61.27 5.72-39.16 46.17-91.82 91.73-103.69 31.63-8.22 61.41 4.35 86 36.42a5.6 5.6 0 0 0 6.16 1.89c7.21-2.42 14.85.93 20 4.14 18.65 11.65 34.71 39.05 38.19 65.14 4.72 35.43 35.53 52.38 49.2 58.22-9.05 14.78-37.41 56.2-83.63 85.54 17.43-21.75 28.16-50.53 28.16-82.16a137.91 137.91 0 0 0 -2.79-27.66c-9.27-45.33-49.74-77.18-94.1-74-21.75 1.52-37.85 10.27-47.83 26-17.19 27.12-38 57.1-67.78 69.42a6 6 0 0 0 -1.84 1.27 5.52 5.52 0 0 0 -1.63 3.88c-.27 35.29 12.89 69 36.09 92.46-45.55-26.25-88.82-78.31-102.45-95.6zm110.54 88c-20.48-20.64-32.41-50.08-33-81.22 30.88-14.29 52-44.69 69.5-72.26 8-12.59 21.19-19.62 39.24-20.89 38.75-2.8 74.3 25.31 82.46 65.19a127.63 127.63 0 0 1 2.55 25.44c0 61.39-43.46 111.34-96.88 111.34-23.53-.03-46.2-9.83-63.88-27.63z"/></svg>