<svg id="Icons" height="512" viewBox="0 0 74 74" width="512" xmlns="http://www.w3.org/2000/svg"><path d="m12.942 43.263a.5.5 0 0 1 -.323-.119c-.459-.389-1.795-1.72-2.025-1.968a.5.5 0 1 1 .732-.681c.243.262 1.545 1.552 1.94 1.886a.5.5 0 0 1 -.324.882z"/><path d="m26.657 48.319a21.635 21.635 0 0 1 -8.045-1.553.5.5 0 0 1 .371-.929 20.656 20.656 0 1 0 -12.908-20.9.5.5 0 0 1 -.539.456.5.5 0 0 1 -.457-.539 21.649 21.649 0 1 1 21.578 23.465z"/><path d="m7.384 35.87a.5.5 0 0 1 -.455-.292 20.918 20.918 0 0 1 -1.029-2.744.5.5 0 1 1 .959-.284 19.82 19.82 0 0 0 .977 2.612.5.5 0 0 1 -.455.708z"/><path d="m26.657 42.684a16.03 16.03 0 1 1 11.343-4.69 15.928 15.928 0 0 1 -11.343 4.69zm0-31.06a15.03 15.03 0 1 0 10.633 4.4 14.937 14.937 0 0 0 -10.633-4.4z"/><path d="m45.4 45.9a.494.494 0 0 1 -.353-.146l-3.787-3.789a.5.5 0 0 1 .707-.707l3.787 3.789a.5.5 0 0 1 -.354.853z"/><path d="m63.179 69a5.8 5.8 0 0 1 -4.117-1.7l-17.775-17.78a.5.5 0 0 1 0-.708l7.528-7.528a.5.5 0 0 1 .707 0l17.778 17.775a5.821 5.821 0 0 1 -4.121 9.941zm-20.831-19.834 17.421 17.421a4.823 4.823 0 1 0 6.821-6.821l-17.421-17.421z"/><path d="m45.582 53.608a.5.5 0 0 1 -.353-.854l7.529-7.528a.5.5 0 1 1 .707.707l-7.529 7.528a.5.5 0 0 1 -.354.147z"/><path d="m23.738 35.225a1.3 1.3 0 0 1 -.649-.176c-1.665-.994-1.85-4.079-1.96-5.923l-.033-.518a14.279 14.279 0 0 0 -.848-2.72 12.362 12.362 0 0 1 -1.076-4.01c.234-3.02 2.032-3.722 3.5-3.779a3.846 3.846 0 0 1 1.164.242 9.46 9.46 0 0 0 2.82.5 11.053 11.053 0 0 0 2.612-.474 5.312 5.312 0 0 1 1.378-.267c1.466.057 3.264.759 3.5 3.779a12.353 12.353 0 0 1 -1.076 4.008 14.311 14.311 0 0 0 -.848 2.722l-.034.523c-.111 1.842-.3 4.925-1.956 5.916a1.152 1.152 0 0 1 -1.537-.277 7.917 7.917 0 0 1 -.641-2.017c-.218-.88-.883-3.56-1.407-3.575-.5.015-1.163 2.7-1.381 3.575a7.849 7.849 0 0 1 -.642 2.018 1.03 1.03 0 0 1 -.886.453zm2.906-7.047c1.312.036 1.854 2.221 2.377 4.335a9.943 9.943 0 0 0 .506 1.706.284.284 0 0 0 .193-.033c1.2-.718 1.381-3.688 1.467-5.115l.034-.536a13.743 13.743 0 0 1 .909-3 12.666 12.666 0 0 0 1.016-3.583c-.193-2.479-1.542-2.818-2.541-2.857a7.263 7.263 0 0 0 -1.079.234 11.853 11.853 0 0 1 -2.86.508h-.013a10.324 10.324 0 0 1 -3.11-.542 3.75 3.75 0 0 0 -.835-.2c-1 .039-2.347.378-2.54 2.857a12.684 12.684 0 0 0 1.017 3.585 13.847 13.847 0 0 1 .909 3l.033.531c.086 1.429.264 4.4 1.47 5.122a.243.243 0 0 0 .2.024 10.318 10.318 0 0 0 .5-1.7c.519-2.114 1.06-4.3 2.347-4.336z"/></svg>