<svg id="Layer_1" height="512" viewBox="0 0 128 128" width="512" xmlns="http://www.w3.org/2000/svg" data-name="Layer 1"><path d="m126 58.706h-12.235c5.624-9.029 3.666-15.937 3.56-16.287-1.666-4.768-4.933-7.848-9.448-8.9a15 15 0 0 0 -7.779.347 23.355 23.355 0 0 1 -13.678 0 15 15 0 0 0 -7.779-.347c-4.515 1.056-7.782 4.136-9.462 8.948-.092.308-2.039 7.187 3.586 16.243h-17.518c5.624-9.029 3.666-15.937 3.56-16.287-1.666-4.768-4.933-7.848-9.448-8.9a15 15 0 0 0 -7.779.347 23.363 23.363 0 0 1 -13.678 0 15 15 0 0 0 -7.779-.347c-4.515 1.056-7.782 4.136-9.462 8.948-.092.308-2.039 7.187 3.586 16.243h-12.247a1 1 0 0 0 0 2h13.587a8.816 8.816 0 0 1 1.813 6.12l-.048.475a43.149 43.149 0 0 0 -.308 4.563c.016 5.416.719 15.421 5.248 21.581a3.4 3.4 0 0 0 2.721 1.4 3.074 3.074 0 0 0 1.466-.367 3.147 3.147 0 0 0 1.661-2.919c.299-3.986 1.86-14.991 5.46-18.117a1.719 1.719 0 0 1 2.274 0c3.6 3.126 5.164 14.131 5.468 18.147a3.344 3.344 0 0 0 2.523 3.075 3.2 3.2 0 0 0 3.388-1.321c3.638-5.658 5.056-14.281 5.17-20.464a50.88 50.88 0 0 0 -.294-5.476l-.062-.7a8.823 8.823 0 0 1 1.824-6.01h20.21a8.816 8.816 0 0 1 1.813 6.12l-.048.475a43.149 43.149 0 0 0 -.308 4.563c.016 5.416.719 15.421 5.248 21.581a3.4 3.4 0 0 0 2.721 1.4 3.081 3.081 0 0 0 1.473-.364 3.15 3.15 0 0 0 1.66-2.919c.3-3.976 1.864-14.981 5.464-18.107a1.719 1.719 0 0 1 2.274 0c3.602 3.126 5.162 14.131 5.466 18.15a3.344 3.344 0 0 0 2.523 3.075 3.2 3.2 0 0 0 3.388-1.321c3.638-5.658 5.056-14.281 5.17-20.464a50.548 50.548 0 0 0 -.292-5.458l-.064-.713a8.823 8.823 0 0 1 1.824-6.01h13.587a1 1 0 0 0 0-2zm-54.919-15.626c1.45-4.149 4.147-6.712 8.016-7.618a11.842 11.842 0 0 1 2.7-.306 13.891 13.891 0 0 1 4.036.619 25.352 25.352 0 0 0 14.844 0 13.016 13.016 0 0 1 6.74-.313c3.87.906 6.566 3.469 8 7.57.02.071 1.886 6.927-4.061 15.674h-12.341v-1.941a1.9 1.9 0 0 0 -1.9-1.9h-7.715a1.9 1.9 0 0 0 -1.9 1.9v1.941h-12.343c-5.948-8.747-4.082-15.606-4.076-15.626zm25.934 16.6v.025s0 .015 0 .024v2.816h-7.515v-5.68h7.512zm-84.452-16.6c1.45-4.149 4.146-6.712 8.016-7.618a11.842 11.842 0 0 1 2.7-.306 13.891 13.891 0 0 1 4.036.619 25.344 25.344 0 0 0 14.844 0 13.029 13.029 0 0 1 6.74-.313c3.869.906 6.566 3.469 8 7.57.02.071 1.886 6.927-4.061 15.674h-12.338v-1.941a1.9 1.9 0 0 0 -1.9-1.9h-7.715a1.9 1.9 0 0 0 -1.9 1.9v1.941h-12.346c-5.948-8.747-4.082-15.606-4.076-15.626zm18.422 16.65c0-.009 0-.016 0-.024s0-.016 0-.025v-2.815h7.515v5.68h-7.515zm19.094 7.162.063.7a49.423 49.423 0 0 1 .285 5.259c-.109 5.909-1.44 14.113-4.852 19.419a1.187 1.187 0 0 1 -1.254.455 1.378 1.378 0 0 1 -.985-1.317c-.046-.617-1.191-15.163-6.147-19.467a3.706 3.706 0 0 0 -4.9 0c-4.956 4.3-6.1 18.85-6.149 19.528-.011.82-.332 1.1-.612 1.247a1.314 1.314 0 0 1 -1.628-.456c-4.193-5.7-4.843-15.23-4.859-20.4a41.046 41.046 0 0 1 .3-4.352l.049-.478a10.63 10.63 0 0 0 -1.39-6.324h10.985v1.94a1.9 1.9 0 0 0 1.9 1.9h7.715a1.9 1.9 0 0 0 1.9-1.9v-1.94h10.99a10.608 10.608 0 0 0 -1.411 6.186zm58.518 0 .064.716a49.119 49.119 0 0 1 .284 5.242c-.109 5.909-1.44 14.113-4.852 19.419a1.187 1.187 0 0 1 -1.254.455 1.378 1.378 0 0 1 -.985-1.317c-.046-.617-1.191-15.163-6.146-19.467a3.707 3.707 0 0 0 -4.9 0c-4.956 4.3-6.1 18.85-6.149 19.528-.011.82-.333 1.1-.612 1.247a1.314 1.314 0 0 1 -1.628-.455c-4.192-5.7-4.843-15.23-4.859-20.4a41.046 41.046 0 0 1 .3-4.352l.049-.478a10.63 10.63 0 0 0 -1.392-6.322h10.983v1.94a1.9 1.9 0 0 0 1.9 1.9h7.712a1.9 1.9 0 0 0 1.9-1.9v-1.94h10.994a10.6 10.6 0 0 0 -1.406 6.184z"/></svg>