<svg id="Line" height="512" viewBox="0 0 128 128" width="512" xmlns="http://www.w3.org/2000/svg"><path d="m79.014 105.192a5.021 5.021 0 0 1 -3.342-1.068 19.753 19.753 0 0 1 -4.272-6.892 23.019 23.019 0 0 1 -1.937-7.116c-.358-3.566-1.417-8.411-4.426-11.241a1.573 1.573 0 0 0 -2.073 0c-3.011 2.832-4.068 7.676-4.426 11.242a23.1 23.1 0 0 1 -1.938 7.115 19.786 19.786 0 0 1 -4.269 6.888c-1.291 1.26-4.585 1.451-5.979.353-6.162-4.885-7.27-18.827-7.314-19.418-.083-.868-.168-1.714-.273-2.538a41.6 41.6 0 0 0 -7.43-18.417c-3.7-5.386-3.679-11.867-3.663-17.586v-1.069c0-12.906 9.176-22.639 21.343-22.639a22.419 22.419 0 0 1 8.785 1.775 15.794 15.794 0 0 0 12.4 0 22.424 22.424 0 0 1 8.782-1.774c12.167 0 21.342 9.733 21.342 22.639v1.187c.019 5.636.041 12.023-3.582 17.348a52.77 52.77 0 0 0 -4.893 9.284 33.465 33.465 0 0 0 -2.889 11.829c-.043.573-1.151 14.5-7.311 19.377a4.4 4.4 0 0 1 -2.635.721zm-15.014-28.71a3.5 3.5 0 0 1 2.405.936c3.46 3.253 4.655 8.592 5.047 12.5a21.051 21.051 0 0 0 1.807 6.582 17.782 17.782 0 0 0 3.814 6.2 3.781 3.781 0 0 0 3.337.2c5.477-4.341 6.546-17.838 6.557-17.974a35.614 35.614 0 0 1 3.041-12.438 54.741 54.741 0 0 1 5.083-9.633c3.275-4.813 3.254-10.871 3.236-16.216v-1.194c0-11.766-8.315-20.639-19.342-20.639a20.441 20.441 0 0 0 -8 1.616 17.773 17.773 0 0 1 -13.96 0 20.439 20.439 0 0 0 -8-1.616c-11.028 0-19.343 8.873-19.343 20.639v1.075c-.015 5.426-.031 11.577 3.31 16.446a43.561 43.561 0 0 1 7.767 19.3c.107.842.194 1.709.281 2.619.013.157 1.088 13.68 6.561 18.018a3.775 3.775 0 0 0 3.339-.21 17.79 17.79 0 0 0 3.81-6.2 20.826 20.826 0 0 0 1.807-6.579c.391-3.905 1.585-9.244 5.046-12.5a3.507 3.507 0 0 1 2.397-.932z"/><path d="m109.038 72.038a27.147 27.147 0 0 1 -10.044-1.848 13.915 13.915 0 0 1 -6.49-.355 1 1 0 0 1 .517-1.932 11.682 11.682 0 0 0 5.825.269 1.009 1.009 0 0 1 .678.069c.527.252 12.951 6.03 26.455-4.09.145-4.722-.226-23.189-14.064-32.394a2.613 2.613 0 0 0 -2.531-.176c-1.922.908-5.109 2.866-4.779 5.735a2.724 2.724 0 0 0 2.911 2.315 6.1 6.1 0 0 1 3.475.9 1.747 1.747 0 0 0 .832.276 5.518 5.518 0 0 1 3.931 1.861 4.527 4.527 0 0 1 .724 3.637l-2.431 9.669a1 1 0 0 1 -1.571.554c-.211-.159-5.241-3.859-8.382 0a.987.987 0 0 1 -.857.366 1 1 0 0 1 -.787-.5 7.209 7.209 0 0 0 -3.557-2.9 1 1 0 1 1 .625-1.9 8.8 8.8 0 0 1 3.909 2.746c2.886-2.522 6.625-1.544 9.02-.211l2.074-8.241a2.57 2.57 0 0 0 -.356-2.011 3.7 3.7 0 0 0 -2.506-1.083 3.731 3.731 0 0 1 -1.739-.58 4.081 4.081 0 0 0 -2.348-.591h-.117a4.752 4.752 0 0 1 -4.836-4.082c-.35-3.05 1.751-5.812 5.917-7.781a4.628 4.628 0 0 1 4.487.324c15.244 10.139 15.117 30.612 14.936 34.613a1 1 0 0 1 -.389.748 29.93 29.93 0 0 1 -18.532 6.593z"/><path d="m18.962 72.038a29.926 29.926 0 0 1 -18.532-6.584 1 1 0 0 1 -.389-.748c-.181-4-.308-24.474 14.937-34.614a4.625 4.625 0 0 1 4.478-.327c4.174 1.973 6.275 4.735 5.925 7.78a4.8 4.8 0 0 1 -4.94 4.086 4.068 4.068 0 0 0 -2.358.589 3.76 3.76 0 0 1 -1.771.584 3.68 3.68 0 0 0 -2.477 1.081 2.63 2.63 0 0 0 -.34 2.088l2.058 8.164c2.4-1.333 6.135-2.309 9.02.211a8.8 8.8 0 0 1 3.909-2.748 1 1 0 1 1 .625 1.9 7.212 7.212 0 0 0 -3.559 2.9 1 1 0 0 1 -1.642.131c-3.154-3.876-8.169-.161-8.381 0a1 1 0 0 1 -1.572-.553l-2.414-9.592a4.576 4.576 0 0 1 .707-3.714 5.493 5.493 0 0 1 3.9-1.858 1.792 1.792 0 0 0 .865-.281 6.139 6.139 0 0 1 3.486-.9 2.737 2.737 0 0 0 2.9-2.321c.33-2.864-2.857-4.822-4.787-5.734a2.608 2.608 0 0 0 -2.522.18c-13.841 9.204-14.212 27.671-14.067 32.393 13.5 10.12 25.927 4.343 26.455 4.09a1.011 1.011 0 0 1 .678-.069 11.682 11.682 0 0 0 5.825-.269 1 1 0 0 1 .517 1.932 13.9 13.9 0 0 1 -6.49.355 27.157 27.157 0 0 1 -10.044 1.848z"/></svg>