<svg id="Icons" height="512" viewBox="0 0 74 74" width="512" xmlns="http://www.w3.org/2000/svg"><path d="m52 72a5 5 0 0 1 -5-5v-36a5 5 0 0 1 10 0v36a5 5 0 0 1 -5 5zm0-44a3 3 0 0 0 -3 3v36a3 3 0 0 0 6 0v-36a3 3 0 0 0 -3-3z"/><path d="m32 72a5 5 0 0 1 -5-5v-36a5 5 0 0 1 10 0v36a5 5 0 0 1 -5 5zm0-44a3 3 0 0 0 -3 3v36a3 3 0 0 0 6 0v-36a3 3 0 0 0 -3-3z"/><path d="m53 27h-2v-14a1 1 0 0 1 .29-.71l2.71-2.69c-.33-5.44-7.2-5.6-8-5.6v-2c5 0 10 2.47 10 8a1 1 0 0 1 -.29.71l-2.71 2.7z"/><path d="m24 16a7 7 0 1 1 7-7 7 7 0 0 1 -7 7zm0-12a5 5 0 1 0 5 5 5 5 0 0 0 -5-5z"/><path d="m33 27h-2v-7.65l-4-5 1.56-1.25 4.25 5.32a1 1 0 0 1 .19.58z"/></svg>